inDegrees=yes
name=ik_Shooting_orientations
DataType=double
version=3
OpenSimVersion=4.3-2021-08-27-4bc7ad9
endheader
time	pelvis_tilt	pelvis_list	pelvis_rotation	pelvis_tx	pelvis_ty	pelvis_tz	hip_flexion_r	hip_adduction_r	hip_rotation_r	knee_angle_r	knee_angle_r_beta	ankle_angle_r	subtalar_angle_r	mtp_angle_r	hip_flexion_l	hip_adduction_l	hip_rotation_l	knee_angle_l	knee_angle_l_beta	ankle_angle_l	subtalar_angle_l	mtp_angle_l	lumbar_extension	lumbar_bending	lumbar_rotation	arm_flex_r	arm_add_r	arm_rot_r	elbow_flex_r	pro_sup_r	wrist_flex_r	wrist_dev_r	arm_flex_l	arm_add_l	arm_rot_l	elbow_flex_l	pro_sup_l	wrist_flex_l	wrist_dev_l
8.809999999999857	45.19471964225868	-19.13322388413124	71.28976762660385	0	0.9399999999999999	0	44.737107922389	-9.970899505134524	0	59.82887307430278	1.044210822904366	-4.990491733987321	0	0	44.737107922389	-9.970899505134524	0	59.82887307430278	1.044210822904366	-4.990491733987321	0	0	0	0	0	0	-13.50801840363146	0	75.38593586152531	44.92170623404348	0	0	0	-13.50801840363146	0	75.38593586152531	44.92170623404348	0	0
8.819999999999856	46.94062477387913	-21.08954762466195	50.59938180851266	0	0.9399999999999999	0	44.73712408241827	-9.970905654185401	0	59.82888144703963	1.044210969036191	-4.990494346671753	0	0	44.73712408241827	-9.970905654185401	0	59.82888144703963	1.044210969036191	-4.990494346671753	0	0	0	0	0	0	-13.50806580610367	0	75.38591214857529	44.92171935793542	0	0	0	-13.50806580610367	0	75.38591214857529	44.92171935793542	0	0
8.829999999999856	46.95177286116609	-21.17444821358027	50.57592957425508	0	0.9399999999999999	0	44.73712948026631	-9.970907599973007	0	59.82888435966537	1.0442110198711	-4.990495164492381	0	0	44.73712948026631	-9.970907599973007	0	59.82888435966537	1.0442110198711	-4.990495164492381	0	0	0	0	0	0	-13.50808211054518	0	75.38590422787379	44.9217235517729	0	-1.616420763446103e-35	0	-13.50808211054518	0	75.38590422787379	44.9217235517729	0	-1.616420763446103e-35
8.839999999999856	54.46148633878379	-3.109600388537511	93.79814481609823	0	0.9399999999999999	0	44.73716770151671	-9.970922147028158	0	59.82890408239887	1.044211364097737	-4.990501338431797	0	0	44.73716770151671	-9.970922147028158	0	59.82890408239887	1.044211364097737	-4.990501338431797	0	0	0	0	0	0	-13.50819392531457	0	75.38584814266198	44.92175461809192	0	0	0	-13.50819392531457	0	75.38584814266198	44.92175461809192	0	0
8.849999999999856	46.95306000919791	-21.33372691904502	50.50012872823579	0	0.9399999999999999	0	44.73721649503764	-9.970940794020075	0	59.8289291856314	1.044211802231798	-4.990509259313502	0	0	44.73721649503764	-9.970940794020075	0	59.8289291856314	1.044211802231798	-4.990509259313502	0	0	0	0	0	0	-13.50833636875433	0	75.38577654387525	44.92179440946188	0	0	0	-13.50833636875433	0	75.38577654387525	44.92179440946188	0	0
8.859999999999856	46.94951655532319	-21.41258228239943	50.45581450094007	0	0.9399999999999999	0	44.73722274756745	-9.970943066055252	0	59.8289325370142	1.044211860724462	-4.990510215555648	0	0	44.73722274756745	-9.970943066055252	0	59.8289325370142	1.044211860724462	-4.990510215555648	0	0	0	0	0	0	-13.50835516631985	0	75.38576736902822	44.92179929995503	0	-5.38806921148701e-36	0	-13.50835516631985	0	75.38576736902822	44.92179929995503	0	-5.38806921148701e-36
8.869999999999855	46.94740397855078	-21.49284771708787	50.41698234438879	0	0.9399999999999999	0	44.73722887698445	-9.970945290311406	0	59.82893582568848	1.044211918122656	-4.990511151427949	0	0	44.73722887698445	-9.970945290311406	0	59.82893582568848	1.044211918122656	-4.990511151427949	0	0	0	0	0	0	-13.50837360718982	0	75.38575837483488	44.92180408880359	0	0	0	-13.50837360718982	0	75.38575837483488	44.92180408880359	0	0
8.879999999999855	46.96305825350424	-21.57895896055927	50.39687381929213	0	0.9399999999999999	0	44.73723416770651	-9.970947193503521	0	59.82893868317102	1.044211967995135	-4.99051195084674	0	0	44.73723416770651	-9.970947193503521	0	59.82893868317102	1.044211967995135	-4.99051195084674	0	0	0	0	0	0	-13.50838960094962	0	75.38575061132835	44.92180819280458	0	0	0	-13.50838960094962	0	75.38575061132835	44.92180819280458	0	0
8.889999999999855	46.97326311814858	-21.66547468765597	50.37348669342457	0	0.9399999999999999	0	44.7372395538798	-9.970949132533763	0	59.82894159039417	1.044212018735751	-4.990512765431479	0	0	44.7372395538798	-9.970949132533763	0	59.82894159039417	1.044212018735751	-4.990512765431479	0	0	0	0	0	0	-13.50840587604764	0	75.38574270775837	44.92181237353411	0	0	0	-13.50840587604764	0	75.38574270775837	44.92181237353411	0	0
